<svg width="20" height="20" viewBox="0 0 20 20" fill="none" xmlns="http://www.w3.org/2000/svg">
<path fill-rule="evenodd" clip-rule="evenodd" d="M4.00676 4C4.00227 4.13274 4 4.26609 4 4.4C4 5.6889 4.20984 6.92719 4.59679 8.08357L7.37705 6.69344L6.47924 4H4.00676ZM3.14473 9.86924C2.40829 8.19436 2 6.34354 2 4.4C2 4.06976 2.01179 3.7421 2.03499 3.41744L2.0434 3.29974L2.07898 3.18723C2.29626 2.50006 2.93843 2 3.7 2H6.69547C7.4272 2 8.07684 2.46823 8.30823 3.16241L9.3567 6.30782C9.62423 7.11041 9.26089 7.98759 8.5042 8.36593L5.40265 9.91671C6.44379 11.7475 8.25247 13.5562 10.0833 14.5973L11.6341 11.4958C12.0124 10.7391 12.8896 10.3758 13.6922 10.6433L16.8376 11.6918C17.5318 11.9232 18 12.5728 18 13.3045V16.3C18 17.0616 17.4999 17.7037 16.8128 17.921L16.7003 17.9566L16.5826 17.965C16.2579 17.9882 15.9302 18 15.6 18C13.6565 18 11.8056 17.5917 10.1308 16.8553C10.0082 16.8022 9.88559 16.7461 9.76297 16.6869C6.94112 15.3442 4.65581 13.0589 3.31305 10.237C3.25393 10.1144 3.19778 9.99177 3.14473 9.86924ZM11.9164 15.4032C13.0728 15.7902 14.3111 16 15.6 16C15.7339 16 15.8673 15.9977 16 15.9932V13.5208L13.3066 12.6229L11.9164 15.4032Z" fill="#40444D"/>
</svg>
